<svg width="68" height="71" viewBox="0 0 68 71" fill="none" xmlns="http://www.w3.org/2000/svg">
<path d="M0.0588379 0.5H61C64.866 0.5 68 3.63401 68 7.5V63.5C68 67.366 64.866 70.5 61 70.5H0.0588379V0.5Z" fill="#187A30"/>
<path fill-rule="evenodd" clip-rule="evenodd" d="M40.0904 21.8333C38.1818 21.8162 36.343 22.5722 34.97 23.9383L34.9575 23.951L32.8707 26.0885C32.3956 26.5752 32.3933 27.3667 32.8657 27.8563C33.3382 28.3458 34.1063 28.3481 34.5815 27.8614L36.6617 25.7306C37.5764 24.8236 38.7996 24.3218 40.0693 24.3332C41.3417 24.3446 42.5589 24.8704 43.4587 25.7975C44.3585 26.7245 44.8688 27.9786 44.8799 29.2896C44.8909 30.5971 44.4044 31.857 43.5247 32.7992L39.8929 36.541C39.4008 37.048 38.8087 37.44 38.1567 37.6905C37.5047 37.941 36.808 38.0441 36.1139 37.9929C35.4198 37.9417 34.7445 37.7373 34.1338 37.3936C33.5231 37.05 32.9913 36.575 32.5743 36.001C32.1728 35.4483 31.4125 35.3355 30.876 35.7492C30.3396 36.1628 30.2301 36.9462 30.6316 37.4989C31.257 38.3599 32.0547 39.0722 32.9707 39.5877C33.8867 40.1032 34.8995 40.4097 35.9406 40.4865C36.9816 40.5633 38.0266 40.4086 39.0045 40.0329C39.9824 39.6572 40.8706 39.0692 41.6086 38.3088L45.2484 34.5588L45.2631 34.5433C46.5891 33.1288 47.3229 31.2343 47.3063 29.2678C47.2897 27.3014 46.5241 25.4203 45.1745 24.0297C43.8248 22.6391 41.999 21.8504 40.0904 21.8333ZM32.1182 30.5128C31.077 30.4359 30.032 30.5907 29.054 30.9666C28.0761 31.3424 27.1879 31.9307 26.4499 32.6913L22.8104 36.4411L22.7956 36.4566C21.4696 37.8711 20.7359 39.7656 20.7525 41.7321C20.7691 43.6986 21.5346 45.5797 22.8843 46.9702C24.234 48.3608 26.0597 49.1496 27.9684 49.1666C29.877 49.1837 31.7158 48.4278 33.0887 47.0616L33.1037 47.0464L35.1784 44.9089C35.6522 44.4207 35.6522 43.6293 35.1784 43.1411C34.7046 42.6529 33.9364 42.6529 33.4626 43.1411L31.3958 45.2705C30.4813 46.1768 29.2585 46.6781 27.9894 46.6667C26.717 46.6553 25.4998 46.1295 24.6001 45.2025C23.7003 44.2754 23.1899 43.0214 23.1789 41.7104C23.1678 40.4028 23.6544 39.143 24.534 38.2008L28.166 34.4587C28.658 33.9516 29.2501 33.5595 29.9021 33.3089C30.5541 33.0583 31.2508 32.9551 31.9449 33.0064C32.639 33.0576 33.3143 33.262 33.925 33.6058C34.5357 33.9495 35.0674 34.4246 35.4843 34.9987C35.8856 35.5515 36.6459 35.6644 37.1825 35.2509C37.719 34.8374 37.8286 34.0541 37.4273 33.5013C36.8021 32.6401 36.0044 31.9275 35.0883 31.4118C34.1723 30.8962 33.1594 30.5896 32.1182 30.5128Z" fill="white"/>
</svg>
