<svg width="70" height="70" viewBox="0 0 70 70" fill="none" xmlns="http://www.w3.org/2000/svg">
<path d="M0 0H63C66.866 0 70 3.13401 70 7V63C70 66.866 66.866 70 63 70H0V0Z" fill="#526ED3"/>
<path fill-rule="evenodd" clip-rule="evenodd" d="M41.2448 21.3333C39.2783 21.3162 37.3838 22.0722 35.9692 23.4383L35.9563 23.451L33.8063 25.5885C33.3168 26.0752 33.3144 26.8667 33.8012 27.3563C34.2879 27.8458 35.0794 27.8481 35.5689 27.3614L37.7122 25.2306C38.6545 24.3236 39.9149 23.8218 41.223 23.8332C42.534 23.8446 43.7881 24.3704 44.7151 25.2975C45.6422 26.2245 46.168 27.4786 46.1794 28.7896C46.1908 30.0971 45.6894 31.357 44.7831 32.2992L41.0413 36.041C40.5343 36.548 39.9242 36.94 39.2525 37.1905C38.5807 37.441 37.8629 37.5441 37.1478 37.4929C36.4327 37.4417 35.7369 37.2373 35.1077 36.8936C34.4785 36.55 33.9305 36.075 33.5009 35.501C33.0873 34.9483 32.3039 34.8355 31.7512 35.2492C31.1985 35.6628 31.0857 36.4462 31.4994 36.9989C32.1437 37.8599 32.9655 38.5722 33.9093 39.0877C34.8531 39.6032 35.8966 39.9097 36.9692 39.9865C38.0418 40.0633 39.1184 39.9086 40.126 39.5329C41.1335 39.1572 42.0486 38.5692 42.809 37.8088L46.559 34.0588L46.5742 34.0433C47.9404 32.6288 48.6964 30.7343 48.6793 28.7678C48.6622 26.8014 47.8734 24.9203 46.4829 23.5297C45.0923 22.1391 43.2112 21.3504 41.2448 21.3333ZM33.031 30.0128C31.9583 29.9359 30.8816 30.0907 29.8739 30.4666C28.8664 30.8424 27.9513 31.4307 27.191 32.1913L23.4411 35.9411L23.4259 35.9566C22.0597 37.3711 21.3038 39.2656 21.3208 41.2321C21.3379 43.1986 22.1267 45.0797 23.5173 46.4702C24.9078 47.8608 26.7889 48.6496 28.7554 48.6666C30.7219 48.6837 32.6164 47.9278 34.0309 46.5616L34.0464 46.5464L36.1839 44.4089C36.672 43.9207 36.672 43.1292 36.1839 42.6411C35.6957 42.1529 34.9043 42.1529 34.4161 42.6411L32.2867 44.7705C31.3445 45.6768 30.0847 46.1781 28.7771 46.1667C27.4661 46.1553 26.2121 45.6295 25.285 44.7025C24.358 43.7754 23.8321 42.5214 23.8207 41.2104C23.8094 39.9028 24.3107 38.643 25.217 37.7008L28.959 33.9587C29.4659 33.4516 30.0759 33.0595 30.7477 32.8089C31.4195 32.5583 32.1373 32.4551 32.8524 32.5064C33.5675 32.5576 34.2633 32.762 34.8925 33.1058C35.5217 33.4495 36.0696 33.9246 36.499 34.4987C36.9126 35.0515 37.6959 35.1644 38.2487 34.7509C38.8015 34.3374 38.9145 33.5541 38.501 33.0013C37.8568 32.1401 37.0349 31.4275 36.0911 30.9118C35.1473 30.3962 34.1037 30.0896 33.031 30.0128Z" fill="white"/>
</svg>
