<svg width="47" height="40" viewBox="0 0 47 40" fill="none" xmlns="http://www.w3.org/2000/svg">
<rect x="0.213867" width="46" height="40" rx="7" fill="#526ED3"/>
<g clip-path="url(#clip0_348_2064)">
<path fill-rule="evenodd" clip-rule="evenodd" d="M12.7881 20.7075C12.6086 20.4296 12.4637 20.1889 12.3544 20C12.4637 19.8111 12.6086 19.5704 12.7881 19.2925C13.2491 18.5787 13.9319 17.6294 14.8182 16.6839C16.6092 14.7736 19.1132 13 22.2137 13C25.3142 13 27.8182 14.7736 29.6092 16.6839C30.4955 17.6294 31.1783 18.5787 31.6393 19.2925C31.8188 19.5704 31.9637 19.8111 32.073 20C31.9637 20.1889 31.8188 20.4296 31.6393 20.7075C31.1783 21.4213 30.4955 22.3706 29.6092 23.3161C27.8182 25.2264 25.3142 27 22.2137 27C19.1132 27 16.6092 25.2264 14.8182 23.3161C13.9319 22.3706 13.2491 21.4213 12.7881 20.7075ZM34.1078 19.5521C34.1078 19.5521 34.26 20.1426 34.1078 20.4479L34.1062 20.4511L34.1027 20.458L34.0914 20.4802C34.0818 20.4987 34.0683 20.5247 34.0509 20.5576C34.0162 20.6233 33.9657 20.7168 33.8997 20.834C33.7679 21.0684 33.5738 21.3985 33.3194 21.7925C32.8116 22.5787 32.0569 23.6294 31.0682 24.6839C29.1092 26.7736 26.1132 29 22.2137 29C18.3142 29 15.3182 26.7736 13.3592 24.6839C12.3705 23.6294 11.6158 22.5787 11.108 21.7925C10.8535 21.3985 10.6595 21.0684 10.5277 20.834C10.4617 20.7168 10.4112 20.6233 10.3764 20.5576C10.359 20.5247 10.3456 20.4987 10.336 20.4802L10.3247 20.458L10.3212 20.4511L10.3201 20.4488L10.3196 19.5521L10.3212 19.5489L10.3247 19.542L10.336 19.5198C10.3456 19.5013 10.359 19.4753 10.3764 19.4424C10.4112 19.3767 10.4617 19.2832 10.5277 19.166C10.6595 18.9316 10.8535 18.6015 11.108 18.2075C11.6158 17.4213 12.3705 16.3706 13.3592 15.3161C15.3182 13.2264 18.3142 11 22.2137 11C26.1132 11 29.1092 13.2264 31.0682 15.3161C32.0569 16.3706 32.8116 17.4213 33.3194 18.2075C33.5738 18.6015 33.7679 18.9316 33.8997 19.166C33.9657 19.2832 34.0162 19.3767 34.0509 19.4424C34.0683 19.4753 34.0818 19.5013 34.0914 19.5198L34.1027 19.542L34.1062 19.5489L34.1078 19.5521ZM34.1078 20.4479C34.2485 20.1664 34.2485 19.8336 34.1078 19.5521C34.1078 19.5521 34.26 20.1426 34.1078 20.4479ZM10.3193 20.4472L10.3194 19.9996L10.3196 19.5521C10.1789 19.8336 10.1785 20.1657 10.3193 20.4472ZM22.2137 16C21.1528 16 20.1354 16.4214 19.3853 17.1716C18.6351 17.9217 18.2137 18.9391 18.2137 20C18.2137 21.0609 18.6351 22.0783 19.3853 22.8284C20.1354 23.5786 21.1528 24 22.2137 24C23.2746 24 24.292 23.5786 25.0421 22.8284C25.7923 22.0783 26.2137 21.0609 26.2137 20C26.2137 18.9391 25.7923 17.9217 25.0421 17.1716C24.292 16.4214 23.2746 16 22.2137 16ZM23.6279 21.4142C23.2528 21.7893 22.7441 22 22.2137 22C21.6833 22 21.1746 21.7893 20.7995 21.4142C20.4244 21.0391 20.2137 20.5304 20.2137 20C20.2137 19.4696 20.4244 18.9609 20.7995 18.5858C21.1746 18.2107 21.6833 18 22.2137 18C22.7441 18 23.2528 18.2107 23.6279 18.5858C24.003 18.9609 24.2137 19.4696 24.2137 20C24.2137 20.5304 24.003 21.0391 23.6279 21.4142Z" fill="white"/>
</g>
<defs>
<clipPath id="clip0_348_2064">
<rect width="23.9995" height="24" fill="white" transform="translate(10.2139 8)"/>
</clipPath>
</defs>
</svg>
