<svg width="36" height="34" viewBox="0 0 36 34" fill="none" xmlns="http://www.w3.org/2000/svg">
<path fill-rule="evenodd" clip-rule="evenodd" d="M6.33295 5.98099C12.7762 -0.104339 23.224 -0.104339 29.6673 5.98099C36.1106 12.0663 36.1106 21.9336 29.6673 28.019C23.224 34.1043 12.7762 34.1043 6.33295 28.019C-0.110333 21.9336 -0.110333 12.0663 6.33295 5.98099ZM27.546 7.98446C22.2742 3.00562 13.726 3.00562 8.45427 7.98446C3.18256 12.9633 3.18256 21.0366 8.45427 26.0155C13.726 30.9943 22.2742 30.9943 27.546 26.0155C32.8177 21.0366 32.8177 12.9633 27.546 7.98446ZM12.6975 11.9904C13.2834 11.4372 14.2331 11.4373 14.8189 11.9906L18.0001 14.9956L21.1814 11.9906C21.7671 11.4373 22.7168 11.4372 23.3027 11.9904C23.8885 12.5436 23.8886 13.4406 23.3029 13.9939L20.1212 16.9993L23.3029 20.0047C23.8886 20.558 23.8885 21.4549 23.3027 22.0081C22.7168 22.5613 21.7671 22.5612 21.1814 22.008L18.0001 19.0029L14.8189 22.008C14.2331 22.5612 13.2834 22.5613 12.6975 22.0081C12.1117 21.4549 12.1116 20.558 12.6974 20.0047L15.879 16.9993L12.6974 13.9939C12.1116 13.4406 12.1117 12.5436 12.6975 11.9904Z" fill="black"/>
</svg>
